<svg xmlns="http://www.w3.org/2000/svg" xmlns:xlink="http://www.w3.org/1999/xlink" width="80" zoomAndPan="magnify" viewBox="0 0 60 52.499999" height="70" preserveAspectRatio="xMidYMid meet" version="1.0"><defs><g/><clipPath id="id1"><path d="M 5 1 L 55 1 L 55 52.003906 L 5 52.003906 Z M 5 1 " clip-rule="nonzero"/></clipPath></defs><g clip-path="url(#id1)"><path fill="rgb(0%, 0%, 0%)" d="M 29.542969 1.097656 C 16.003906 1.097656 5.027344 12.574219 5.027344 26.726562 C 5.027344 40.882812 16.003906 52.359375 29.542969 52.359375 C 43.085938 52.359375 54.0625 40.882812 54.0625 26.726562 C 54.0625 12.574219 43.085938 1.097656 29.542969 1.097656 " fill-opacity="1" fill-rule="nonzero"/></g><g fill="rgb(100%, 100%, 100%)" fill-opacity="1"><g transform="translate(6.902804, 32.585639)"><g><path d="M 6.378906 0.253906 C 7.996094 0.253906 9.109375 0 10.117188 -0.328125 L 10.117188 -2.019531 L 9.980469 -2.019531 C 9.980469 -2.019531 9.183594 0.101562 6.378906 0.101562 C 3.941406 0.101562 1.894531 -2.628906 1.894531 -6.316406 C 1.894531 -10.003906 3.765625 -12.734375 6.378906 -12.734375 C 8.488281 -12.734375 9.511719 -11.835938 9.511719 -10.332031 C 9.511719 -8.488281 5.960938 -7.742188 5.960938 -5.519531 C 5.960938 -4.9375 6.378906 -4.195312 7.0625 -4.34375 C 6.808594 -4.558594 6.683594 -4.773438 6.683594 -5.167969 C 6.683594 -6.667969 10.257812 -7.605469 10.257812 -10.230469 C 10.257812 -11.382812 9.273438 -12.886719 6.378906 -12.886719 C 3.234375 -12.886719 0.757812 -10.105469 0.757812 -6.316406 C 0.757812 -2.527344 3.234375 0.253906 6.378906 0.253906 Z M 6.378906 0.253906 "/></g></g></g><g fill="rgb(100%, 100%, 100%)" fill-opacity="1"><g transform="translate(17.412847, 32.585639)"><g><path d="M 0.378906 -2.210938 C 0.378906 -0.898438 1.210938 0.253906 2.679688 0.253906 C 5.191406 0.253906 6.667969 -1.96875 6.667969 -5.039062 C 6.667969 -5.648438 6.644531 -6.152344 6.59375 -6.554688 L 8.160156 -2.425781 C 8.640625 -1.148438 8.703125 -0.125 6.921875 -0.125 L 6.921875 0 L 11.066406 0 L 11.066406 -0.125 C 10.296875 -0.125 9.890625 -0.820312 9.335938 -2.210938 L 5.292969 -12.886719 L 5.167969 -12.886719 C 4.371094 -10.789062 3.902344 -9.539062 3.132812 -7.503906 C 3.007812 -7.175781 3.070312 -6.835938 3.421875 -6.835938 C 4.144531 -6.835938 4.523438 -8.160156 5.128906 -8.160156 C 5.292969 -8.160156 5.433594 -8.058594 5.433594 -7.820312 C 5.433594 -6.503906 0.378906 -5.316406 0.378906 -2.210938 Z M 1.453125 -2.449219 C 1.453125 -5.570312 5.570312 -6.101562 5.570312 -7.792969 C 5.570312 -8.121094 5.394531 -8.285156 5.152344 -8.285156 C 4.484375 -8.285156 4.015625 -6.960938 3.4375 -6.960938 C 3.234375 -6.960938 3.132812 -7.113281 3.296875 -7.554688 L 4.75 -11.417969 L 6.277344 -7.390625 C 6.503906 -6.644531 6.542969 -5.949219 6.542969 -5.015625 C 6.542969 -2.941406 5.546875 -0.355469 3.4375 -0.355469 C 2.199219 -0.355469 1.453125 -1.261719 1.453125 -2.449219 Z M 1.453125 -2.449219 "/></g></g></g><g fill="rgb(100%, 100%, 100%)" fill-opacity="1"><g transform="translate(28.478709, 32.585639)"><g><path d="M 0 -12.507812 C 0.769531 -12.507812 1.175781 -11.8125 1.730469 -10.421875 L 5.773438 0.253906 L 5.898438 0.253906 L 9.941406 -10.421875 C 10.472656 -11.824219 10.902344 -12.507812 11.671875 -12.507812 L 11.671875 -12.632812 L 8.097656 -12.632812 L 8.097656 -12.507812 C 9.878906 -12.507812 9.851562 -11.179688 9.523438 -10.167969 C 8.550781 -7.175781 7.363281 -4.195312 6.316406 -1.210938 L 2.90625 -10.207031 C 2.425781 -11.484375 2.363281 -12.507812 4.144531 -12.507812 L 4.144531 -12.632812 L 0 -12.632812 Z M 0 -12.507812 "/></g></g></g><g fill="rgb(100%, 100%, 100%)" fill-opacity="1"><g transform="translate(40.150923, 32.585639)"><g><path d="M 0.378906 -12.507812 C 1.464844 -12.507812 1.542969 -11.609375 1.542969 -9.121094 L 1.542969 -3.511719 C 1.542969 -1.023438 1.464844 -0.125 0.378906 -0.125 L 0.378906 0 L 9.421875 0 L 9.421875 -2.085938 L 9.296875 -2.085938 C 9.296875 -0.265625 5.445312 -0.125 4.246094 -0.125 L 2.628906 -0.125 L 2.628906 -6.871094 C 2.828125 -7.136719 3.144531 -7.328125 3.511719 -7.3125 C 4.410156 -7.289062 5.054688 -6.203125 6.59375 -6.203125 C 7.59375 -6.203125 8.210938 -6.847656 8.210938 -7.59375 L 8.085938 -7.59375 C 8.085938 -7.148438 7.628906 -6.871094 7.148438 -6.871094 C 6.039062 -6.871094 5.34375 -7.65625 4.09375 -7.65625 C 3.511719 -7.65625 3.007812 -7.441406 2.628906 -7.074219 L 2.628906 -12.507812 L 4.722656 -12.507812 C 7.628906 -12.507812 9.296875 -11.824219 9.296875 -10.976562 L 9.296875 -10.925781 L 9.421875 -10.925781 L 9.421875 -12.632812 L 0.378906 -12.632812 Z M 0.378906 -12.507812 "/></g></g></g><path fill="rgb(100%, 100%, 100%)" d="M 15.660156 24.164062 L 44.625 24.164062 L 44.625 29.367188 L 15.660156 29.367188 L 15.660156 24.164062 " fill-opacity="1" fill-rule="nonzero"/><g fill="rgb(0%, 0%, 0%)" fill-opacity="1"><g transform="translate(20.840428, 27.46559)"><g><path d="M 1.324219 0.132812 C 1.476562 0.277344 1.847656 0.0664062 2.511719 -0.523438 C 2.574219 -0.578125 2.519531 -0.597656 2.441406 -0.546875 C 2.214844 -0.359375 1.605469 0.175781 1.46875 0.0546875 C 1.410156 0.00390625 1.648438 -0.386719 1.691406 -0.476562 C 1.726562 -0.5625 1.640625 -0.613281 1.621094 -0.628906 C 1.585938 -0.648438 1.488281 -0.710938 1.390625 -0.644531 C 1.25 -0.539062 0.898438 -0.171875 0.746094 -0.0117188 C 0.742188 -0.0664062 0.910156 -0.34375 1.03125 -0.5625 C 1.054688 -0.609375 1.035156 -0.671875 0.988281 -0.695312 C 0.886719 -0.742188 0.785156 -0.746094 0.707031 -0.683594 C 0.492188 -0.527344 -0.0390625 0.00390625 -0.222656 0.125 C -0.132812 -0.00390625 0.140625 -0.394531 0.167969 -0.492188 C 0.1875 -0.558594 0.171875 -0.605469 0.117188 -0.628906 C 0.0742188 -0.648438 0.0195312 -0.65625 -0.00390625 -0.59375 C -0.117188 -0.304688 -0.335938 -0.0742188 -0.496094 0.183594 C -0.539062 0.242188 -0.574219 0.304688 -0.503906 0.355469 C -0.445312 0.390625 -0.386719 0.402344 -0.324219 0.359375 C -0.253906 0.308594 -0.183594 0.253906 -0.117188 0.199219 C 0.15625 -0.0351562 0.75 -0.582031 0.792969 -0.582031 C 0.722656 -0.441406 0.574219 -0.15625 0.511719 -0.0195312 C 0.476562 0.0546875 0.539062 0.1875 0.613281 0.226562 C 0.679688 0.265625 0.765625 0.140625 0.792969 0.117188 C 0.976562 -0.0507812 1.410156 -0.527344 1.488281 -0.542969 C 1.382812 -0.386719 1.179688 -0.00390625 1.324219 0.132812 Z M 1.324219 0.132812 "/></g></g></g><g fill="rgb(0%, 0%, 0%)" fill-opacity="1"><g transform="translate(23.308186, 27.46559)"><g><path d="M -0.171875 0.480469 C 0.125 0.628906 1.203125 -0.46875 1.179688 -0.496094 C 1.140625 -0.558594 0.0664062 0.472656 -0.0859375 0.367188 C -0.199219 0.289062 -0.0546875 -0.117188 0.367188 -0.582031 C 0.410156 -0.632812 0.125 -0.707031 0.046875 -0.609375 C -0.0976562 -0.480469 -0.597656 0.269531 -0.171875 0.480469 Z M 0.25 -0.867188 C 0.234375 -0.8125 0.46875 -0.859375 0.46875 -0.859375 C 0.46875 -0.859375 0.78125 -0.917969 0.683594 -0.953125 C 0.589844 -0.988281 0.390625 -0.949219 0.390625 -0.949219 C 0.390625 -0.949219 0.257812 -0.902344 0.25 -0.867188 Z M 0.25 -0.867188 "/></g></g></g><g fill="rgb(0%, 0%, 0%)" fill-opacity="1"><g transform="translate(24.450663, 27.46559)"><g><path d="M -0.539062 0.359375 C -0.480469 0.394531 -0.421875 0.441406 -0.355469 0.390625 C -0.300781 0.351562 -0.25 0.304688 -0.203125 0.257812 C -0.113281 0.167969 0.722656 -0.628906 0.8125 -0.605469 C 0.84375 -0.570312 0.59375 -0.257812 0.496094 0.0234375 C 0.460938 0.132812 0.445312 0.214844 0.570312 0.304688 C 0.65625 0.378906 0.792969 0.351562 0.878906 0.292969 C 1.140625 0.125 1.707031 -0.355469 1.875 -0.539062 C 1.890625 -0.5625 1.925781 -0.644531 1.808594 -0.546875 C 1.558594 -0.371094 0.816406 0.335938 0.707031 0.214844 C 0.605469 0.105469 1.015625 -0.378906 1.027344 -0.523438 C 1.050781 -0.609375 0.898438 -0.832031 0.730469 -0.734375 C 0.410156 -0.5625 -0.0234375 -0.0742188 -0.300781 0.136719 C -0.285156 0.0664062 -0.175781 -0.117188 0.152344 -0.664062 C 0.0820312 -0.695312 0.0546875 -0.664062 0.03125 -0.640625 C -0.203125 -0.378906 -0.40625 -0.0976562 -0.570312 0.207031 C -0.597656 0.269531 -0.59375 0.320312 -0.539062 0.359375 Z M -0.539062 0.359375 "/></g></g></g><g fill="rgb(0%, 0%, 0%)" fill-opacity="1"><g transform="translate(26.278634, 27.46559)"><g><path d="M -0.171875 0.480469 C 0.125 0.628906 1.203125 -0.46875 1.179688 -0.496094 C 1.140625 -0.558594 0.0664062 0.472656 -0.0859375 0.367188 C -0.199219 0.289062 -0.0546875 -0.117188 0.367188 -0.582031 C 0.410156 -0.632812 0.125 -0.707031 0.046875 -0.609375 C -0.0976562 -0.480469 -0.597656 0.269531 -0.171875 0.480469 Z M 0.25 -0.867188 C 0.234375 -0.8125 0.46875 -0.859375 0.46875 -0.859375 C 0.46875 -0.859375 0.78125 -0.917969 0.683594 -0.953125 C 0.589844 -0.988281 0.390625 -0.949219 0.390625 -0.949219 C 0.390625 -0.949219 0.257812 -0.902344 0.25 -0.867188 Z M 0.25 -0.867188 "/></g></g></g><g fill="rgb(0%, 0%, 0%)" fill-opacity="1"><g transform="translate(27.421111, 27.46559)"><g><path d="M 1.324219 0.132812 C 1.476562 0.277344 1.847656 0.0664062 2.511719 -0.523438 C 2.574219 -0.578125 2.519531 -0.597656 2.441406 -0.546875 C 2.214844 -0.359375 1.605469 0.175781 1.46875 0.0546875 C 1.410156 0.00390625 1.648438 -0.386719 1.691406 -0.476562 C 1.726562 -0.5625 1.640625 -0.613281 1.621094 -0.628906 C 1.585938 -0.648438 1.488281 -0.710938 1.390625 -0.644531 C 1.25 -0.539062 0.898438 -0.171875 0.746094 -0.0117188 C 0.742188 -0.0664062 0.910156 -0.34375 1.03125 -0.5625 C 1.054688 -0.609375 1.035156 -0.671875 0.988281 -0.695312 C 0.886719 -0.742188 0.785156 -0.746094 0.707031 -0.683594 C 0.492188 -0.527344 -0.0390625 0.00390625 -0.222656 0.125 C -0.132812 -0.00390625 0.140625 -0.394531 0.167969 -0.492188 C 0.1875 -0.558594 0.171875 -0.605469 0.117188 -0.628906 C 0.0742188 -0.648438 0.0195312 -0.65625 -0.00390625 -0.59375 C -0.117188 -0.304688 -0.335938 -0.0742188 -0.496094 0.183594 C -0.539062 0.242188 -0.574219 0.304688 -0.503906 0.355469 C -0.445312 0.390625 -0.386719 0.402344 -0.324219 0.359375 C -0.253906 0.308594 -0.183594 0.253906 -0.117188 0.199219 C 0.15625 -0.0351562 0.75 -0.582031 0.792969 -0.582031 C 0.722656 -0.441406 0.574219 -0.15625 0.511719 -0.0195312 C 0.476562 0.0546875 0.539062 0.1875 0.613281 0.226562 C 0.679688 0.265625 0.765625 0.140625 0.792969 0.117188 C 0.976562 -0.0507812 1.410156 -0.527344 1.488281 -0.542969 C 1.382812 -0.386719 1.179688 -0.00390625 1.324219 0.132812 Z M 1.324219 0.132812 "/></g></g></g><g fill="rgb(0%, 0%, 0%)" fill-opacity="1"><g transform="translate(29.888869, 27.46559)"><g><path d="M -0.488281 0.421875 C -0.289062 0.625 0.171875 0.238281 0.425781 -0.0976562 C 0.292969 0.214844 0.390625 0.34375 0.542969 0.421875 C 0.835938 0.570312 1.914062 -0.523438 1.894531 -0.558594 C 1.859375 -0.621094 0.78125 0.410156 0.625 0.308594 C 0.511719 0.226562 0.660156 -0.175781 1.078125 -0.640625 C 1.121094 -0.691406 0.84375 -0.765625 0.757812 -0.671875 C 0.65625 -0.578125 0.609375 -0.523438 0.609375 -0.523438 C 0.597656 -0.65625 0.269531 -0.707031 0.105469 -0.625 C -0.429688 -0.359375 -0.707031 0.242188 -0.488281 0.421875 Z M 0.53125 -0.503906 C 0.5625 -0.441406 0.507812 -0.34375 0.472656 -0.308594 C 0.339844 -0.167969 0.136719 0.0664062 -0.0234375 0.207031 C -0.175781 0.339844 -0.339844 0.410156 -0.375 0.375 C -0.542969 0.21875 0.324219 -0.800781 0.53125 -0.503906 Z M 0.53125 -0.503906 "/></g></g></g><g fill="rgb(0%, 0%, 0%)" fill-opacity="1"><g transform="translate(31.691446, 27.46559)"><g><path d="M 3.503906 -2.949219 C 3.652344 -3.355469 3.453125 -3.570312 3.183594 -3.585938 C 1.648438 -3.71875 -1.242188 0.578125 -0.34375 1.066406 C -0.289062 1.097656 -0.183594 1.097656 -0.132812 1.085938 C 0.417969 1.003906 1.808594 -0.117188 2.179688 -0.492188 C 2.207031 -0.519531 2.164062 -0.5625 2.132812 -0.539062 C 1.890625 -0.324219 0.175781 1.0625 -0.234375 0.917969 C -0.496094 0.832031 0.0195312 -0.191406 0.148438 -0.441406 C 0.496094 -0.546875 3.117188 -1.789062 3.503906 -2.949219 Z M 3.097656 -3.492188 C 3.347656 -3.527344 3.488281 -3.453125 3.417969 -3.128906 C 3.230469 -2.085938 0.582031 -0.742188 0.234375 -0.609375 C 0.910156 -1.8125 2.273438 -3.382812 3.097656 -3.492188 Z M 3.097656 -3.492188 "/></g></g></g><g fill="rgb(0%, 0%, 0%)" fill-opacity="1"><g transform="translate(33.81392, 27.46559)"><g><path d="M -0.171875 0.480469 C 0.125 0.628906 1.203125 -0.46875 1.179688 -0.496094 C 1.140625 -0.558594 0.0664062 0.472656 -0.0859375 0.367188 C -0.199219 0.289062 -0.0546875 -0.117188 0.367188 -0.582031 C 0.410156 -0.632812 0.125 -0.707031 0.046875 -0.609375 C -0.0976562 -0.480469 -0.597656 0.269531 -0.171875 0.480469 Z M 0.25 -0.867188 C 0.234375 -0.8125 0.46875 -0.859375 0.46875 -0.859375 C 0.46875 -0.859375 0.78125 -0.917969 0.683594 -0.953125 C 0.589844 -0.988281 0.390625 -0.949219 0.390625 -0.949219 C 0.390625 -0.949219 0.257812 -0.902344 0.25 -0.867188 Z M 0.25 -0.867188 "/></g></g></g><g fill="rgb(0%, 0%, 0%)" fill-opacity="1"><g transform="translate(34.956397, 27.46559)"><g><path d="M -1.34375 1.390625 C -1.441406 1.640625 -1.222656 1.695312 -1.136719 1.707031 C -0.648438 1.777344 0.320312 1.121094 0.511719 0.570312 C 0.582031 0.371094 0.53125 0.214844 0.445312 0.0742188 C 0.996094 -0.25 1.527344 -0.511719 1.796875 -0.558594 C 1.792969 -0.554688 1.800781 -0.582031 1.730469 -0.578125 C 1.476562 -0.546875 0.945312 -0.316406 0.390625 -0.00390625 C 0.273438 -0.167969 0.125 -0.308594 0.140625 -0.46875 C 0.15625 -0.761719 0.507812 -0.925781 0.757812 -0.925781 C 0.980469 -0.914062 0.808594 -0.683594 0.65625 -0.519531 C 0.632812 -0.496094 0.625 -0.488281 0.644531 -0.472656 C 0.675781 -0.453125 0.761719 -0.496094 0.796875 -0.527344 C 1.140625 -0.859375 1 -1.089844 0.691406 -1.066406 C 0.851562 -1.082031 0.03125 -1.082031 -0.0507812 -0.476562 C -0.0820312 -0.257812 0.0859375 -0.0820312 0.203125 0.101562 C -0.507812 0.519531 -1.203125 1.035156 -1.34375 1.390625 Z M 0.253906 0.191406 C 0.304688 0.289062 0.324219 0.386719 0.289062 0.492188 C 0.167969 0.867188 -0.898438 1.648438 -1.171875 1.605469 C -1.28125 1.585938 -1.214844 1.425781 -1.15625 1.335938 C -0.96875 1.039062 -0.371094 0.582031 0.253906 0.191406 Z M 0.253906 0.191406 "/></g></g></g><g fill="rgb(0%, 0%, 0%)" fill-opacity="1"><g transform="translate(36.6625, 27.46559)"><g><path d="M 1.324219 0.132812 C 1.476562 0.277344 1.847656 0.0664062 2.511719 -0.523438 C 2.574219 -0.578125 2.519531 -0.597656 2.441406 -0.546875 C 2.214844 -0.359375 1.605469 0.175781 1.46875 0.0546875 C 1.410156 0.00390625 1.648438 -0.386719 1.691406 -0.476562 C 1.726562 -0.5625 1.640625 -0.613281 1.621094 -0.628906 C 1.585938 -0.648438 1.488281 -0.710938 1.390625 -0.644531 C 1.25 -0.539062 0.898438 -0.171875 0.746094 -0.0117188 C 0.742188 -0.0664062 0.910156 -0.34375 1.03125 -0.5625 C 1.054688 -0.609375 1.035156 -0.671875 0.988281 -0.695312 C 0.886719 -0.742188 0.785156 -0.746094 0.707031 -0.683594 C 0.492188 -0.527344 -0.0390625 0.00390625 -0.222656 0.125 C -0.132812 -0.00390625 0.140625 -0.394531 0.167969 -0.492188 C 0.1875 -0.558594 0.171875 -0.605469 0.117188 -0.628906 C 0.0742188 -0.648438 0.0195312 -0.65625 -0.00390625 -0.59375 C -0.117188 -0.304688 -0.335938 -0.0742188 -0.496094 0.183594 C -0.539062 0.242188 -0.574219 0.304688 -0.503906 0.355469 C -0.445312 0.390625 -0.386719 0.402344 -0.324219 0.359375 C -0.253906 0.308594 -0.183594 0.253906 -0.117188 0.199219 C 0.15625 -0.0351562 0.75 -0.582031 0.792969 -0.582031 C 0.722656 -0.441406 0.574219 -0.15625 0.511719 -0.0195312 C 0.476562 0.0546875 0.539062 0.1875 0.613281 0.226562 C 0.679688 0.265625 0.765625 0.140625 0.792969 0.117188 C 0.976562 -0.0507812 1.410156 -0.527344 1.488281 -0.542969 C 1.382812 -0.386719 1.179688 -0.00390625 1.324219 0.132812 Z M 1.324219 0.132812 "/></g></g></g></svg>